<svg viewBox="0 0 384 384" xmlns="http://www.w3.org/2000/svg"><rect width="384" height="384" fill="#457286"/><g transform="scale(1) translate(.5 .5)" fill-opacity=".5"><path d="m362 111-142 2.6-5.4 197 167-12z" fill="#d9ffff"/><path d="m399 329-415-21v84l403-5z" fill="#00000f"/><path d="m203 114-5.2 200-101-14-3.8-172z" fill="#d1fefd"/><path d="m-2.9-5.6-0.9 103 399-52-7-61z" fill="#001535"/><path d="m200 382 18-101 2.7-297h-17z"/><path d="m78 11 4.2 388 15-124-7.2-237z"/><path d="m51 131 28 8 1.2 160-32-5.5z" fill="#c4faf5"/><path d="m-16 377 359 22-1.5-208 16 143z" fill="#000026"/><path d="m146 354-162-53 143 10 15-297z" fill="#004d81"/><path d="m310 7.2 23 197 14 73-14-155z" fill="#000024"/><path d="m287 294 56-31-21-126-35 27z" fill="#f4fcfc"/><path d="m340 356-38-152 10 108-250 7z" fill="#005c94"/><path d="m215 374-21 25 3.2-100 20-313z"/><path d="m-16 7.1 69-23-8.2 380-10-295z" fill="#000031"/><path d="m198 291-52 14-0.52-99 55-15z" fill="#ebf3f2"/><path d="m285-8.6-5.2 271-0.64 137 7.9-171z" fill="#00336e"/><path d="m203 47 0.94 119-110-18-3.8-93z" fill="#519fa0"/><path d="m97 189-8.4 210-105-24 87-43z" fill="#000004"/><path d="m380 269-6.7-285h-46l34 47z" fill="#00002a"/><path d="m-7.8 258 16 36 30 3.9 0.99-189z" fill="#5dc8c7"/><path d="m327 126-105 18-3.9-114 87 9.4z" fill="#459da1"/><path d="m281 186-2.9 113-27-20 0.61-108z" fill="#e4f3f3"/><path d="m71-16 7.5 145 14 69-3.5-189z"/><path d="m238 362 9.2-136 8.5 136-29-134z" fill="#00638d"/><path d="m130 184-34 24-0.88 110 37-23z" fill="#c7e2e2"/><path d="m132 153 0.052 235 16-212-18-188z" fill="#00517b"/><path d="m99 399 283-80-7.2-171 24 236z" fill="#000338"/><path d="m66 318-28-35 15 112 8.8-211z" fill="#003064"/><path d="m-2.9 52 81-2.4-66 111-9.5 144z" fill="#005878"/><path d="m336 213-9.9-62 23 88 4.9 115z" fill="#000039"/><path d="m335 177 26 122 13-91-38-81z" fill="#c3e1e6"/><path d="m378 175 9.9 67-4.1-124-9.5-9.4z" fill="#abecea"/><path d="m246 194 5 89-9.7-53 4.5-102z" fill="#004b78"/><path d="m71 69 11 145-3.1 65-14 27z" fill="#b8dadf"/><path d="m366 90-44-14 1.7 18 46 82z" fill="#74babb"/><path d="m311 171-3.9 85-3-23 2.9-94z" fill="#01819f"/><path d="m87 2.1 8.9 294-17 39 2.7-120z"/><path d="m399 76-68-88-115 9.8 2.1 46z" fill="#004c6c"/><path d="m155 354-159-16 4.6 61 329-17z" fill="#000026"/><path d="m216 252 2.9-185-18-74 1.8 122z"/><path d="m399 306-183 28-1.2 26 109 6.8z" fill="#003c75"/><path d="m184 320-95-12-4.6 40 113 5.8z" fill="#05608d"/><path d="m39 235-0.17 139 11-154-9.1-175z" fill="#000447"/><path d="m310 146 1.7 104 31 44-3-63z" fill="#f4f3f1"/><path d="m46-16-62 8.9 4.4 71 261-76z" fill="#001d43"/><path d="m49 165 30-8.7-6.3-103-21 29z" fill="#4b9d9f"/><path d="m330 131-16-137-5.2-9.8 8.6 111z" fill="#000026"/><path d="m289 82 35 26 6 44-42 1.6z" fill="#98c6ca"/><path d="m276 307 10-143-1 129-7 48z" fill="#006594"/><path d="m292 315 20-8.4 3.2-29-25-65z" fill="#d5e9e7"/><path d="m91 33 111-49-3.7 66-110 23z" fill="#0a6075"/><path d="m334 127 2.2 92-7.1-41-1.9-82z" fill="#000035"/><path d="m29 303 44 41-57 7.1 15-125z" fill="#003b71"/><path d="m246 266-15-104-0.62 62 9.2 81z" fill="#d0ebea"/><path d="m228 172-2.5 46 12 118-7-138z" fill="#007490"/><path d="m283 239-0.76-79 1-134 5.4 98z" fill="#004c7a"/><path d="m40 217-3.6 82-5.1-21 3.4-78z" fill="#b6d6d7"/><path d="m95 192-19-152 2.1 112 7.5 89z" fill="#00000d"/><path d="m318 304-9.8-57 10 17 3.4 35z" fill="#004d84"/><path d="m202 214-7.3 148-19 4.6 43 0.21z" fill="#00000b"/><path d="m232 292-8.6-89-5 55-5 50z" fill="#bfe2e5"/><path d="m202 153-1.8 125 17-50-1.8-244z" fill="#00000f"/><path d="m39 118-55 179 26 23-16-166z" fill="#0d8d9d"/><path d="m321 312 1.7-34 2.2-80 20 111z" fill="#a5d4d5"/><path d="m197 324-2.9-17-96-3.1-11 11z" fill="#3ba7ab"/><path d="m386 254-21-215 4.9 142 16 98z" fill="#000138"/><path d="m215 308 137 0.17-18 20-119-0.01z" fill="#0b819b"/><path d="m242 107 5-1.3 0.2 63-3.1 85z" fill="#086f88"/><path d="m353 308-9.3-204 39 184-1.9 16z" fill="#a0ccd3"/><path d="m91 95 2.8 55 41 32 3.2-69z" fill="#73a9ac"/><path d="m370 182-8.1-176 37 32-26-54z" fill="#000b38"/><path d="m200 174 3.5-83-61 2.6 1 70z" fill="#79a9b0"/><path d="m143 288 57-18-1.1-41-52 0.38z" fill="#d5e4e6"/><path d="m51 103-0.85-112-12 11 5.3 183z" fill="#000331"/><path d="m220 103 1.9 63 62-47-6.3-40z" fill="#6fa6aa"/><path d="m37 17-49 52-4.3 151 55-178z" fill="#003e63"/><path d="m377 235-5.8-51-36-2.5 14 58z" fill="#b1d0d9"/><path d="m143 265 4.3-106-17 90 14 78z" fill="#006f98"/><path d="m281 231-31-39-4.6 34 12 47z" fill="#cfe3e5"/><path d="m382 266 17 71-128 62h115z" fill="#00001c"/><path d="m300 132-11 125 12-9.1 5.8-93z" fill="#f1f4f2"/><path d="m342 290 8.4 56 3-34-7-81z" fill="#000a40"/><path d="m249 290-13 91 9-114 7.5-18z" fill="#035c84"/><path d="m324 96 42-16-13-39-32 1.9z" fill="#318b92"/><path d="m145 371-63-35 118 0.86-9.6 25z" fill="#083063"/><path d="m63 176 3.8 122 13-50 0.49-64z" fill="#bcd8dd"/><path d="m68 354 18 3.2-1.3-79-15 47z" fill="#000009"/><path d="m274 311-18 2.2-9-13 7.4-65z" fill="#a5d0d2"/><path d="m11 308 61 22-88 18 20-56z" fill="#00336c"/><path d="m328 128 0.99 44-14-40-2.4 121z" fill="#f3f3f1"/><path d="m199 146 1.1 74-54-8 7.7-66z" fill="#97bfc6"/><path d="m321 277-15-18-3.1-69 9.3 63z" fill="#0075a2"/><path d="m67 243-7.8-66 0.57 101-3.3 75z" fill="#01768e"/><path d="m370 16 29 58-26 25-0.97-25z" fill="#005c79"/><path d="m97 288 35 8.1-4.5 15-37 1.4z" fill="#81babb"/><path d="m93-7.3-6 70-15-72 28-7.2z" fill="#000001"/><path d="m44 327 6.4-10-10-174-1.6 159z" fill="#001b53"/><path d="m59 234-4 74-5.9-67 4.3-77z" fill="#b7dad5"/><path d="m13 238 5.6 63 7.6-41 1.5-73z" fill="#7bbbbd"/></g><path id="a" d="m275 306q0 6.4-2.5 11t-7.3 7.5-11 2.6q-9.7 0-15-5.7t-5.5-16q0-9.9 5.5-15t15-5.6q9.8 0 15 5.6t5.5 15zm-8.8 0q0-6.7-3.2-10t-8.9-3.8q-5.8 0-9 3.8t-3.2 11q0 6.8 3.2 11t8.8 3.9q5.8 0 9-3.8t3.1-11z" fill="#fff"/><path d="m311 320q7.8 0 11-7.9l7.5 2.8q-2.4 6-7.1 8.9t-11 2.9q-10 0-15-5.6t-5.4-16q0-10 5.2-16t15-5.4q7.3 0 12 2.9t6.4 8.6l-7.6 2.1q-0.97-3.1-3.8-4.9t-6.7-1.8q-5.9 0-8.9 3.6t-3 11q0 7.1 3.1 11t9 3.8z"/><path d="m34 27 8.8-2.3 0.21 5.4-1.6 5.1-2.4 9.1 2.2 0.024-9.4-0.018 4.2 7.3-2-25z" fill="#187cb9"/><path d="m31 42 5-1.1 8.8-0.65-5.1-4-3.4 8.8 0.19 8.4-5.9-6 0.49-7-0.036 1.7z" fill="#0b8866"/><path d="m30 49 0.58 2.4 3.6-6.8 4.6 14-4.9-5.1-0.81 3.3-1.7 1.5 2.1-1.5-3.4-8.1z" fill="#207466"/><path d="m26 56 7.9 3.6 5.5-3.1 1.3 0.9-3.1 0.78-12 2 11 2.2-6.2-0.23-3.8-6.2z" fill="#2b59ac"/><path d="m35 69 4.7-1.7 1.4-2.9-1.8 2.8-2 5.3-2.1 2.9 2.2-0.43 0.58-9-3.1 2.9z" fill="#4aa033"/><path d="m39 73-0.16-1.3-5 2 7.6 9 2.2-3.5-5.9-2.7-4-2.8-3.9 0.76 9.3-1.5z" fill="#97af34"/><path d="m41 33-1.4-8.1 17 0.22-5 11-2.2 3.5-5.5 5.2-3.2-2.2 1.2-3.2-0.42-6.4z" fill="#eb8913"/><path d="m46 45-0.15-0.83 5.5 0.11 2.4 2.2-4.2 4.2-11 3.1 2-6.1 2.1 0.42 3.1-3.1z" fill="#19f8c4"/><path d="m37 50 0.27 1.3 8 3.1-0.17-4.7 0.23 5.8-0.58 2.5-10 5.1 2.8-13-0.46 0.13z" fill="#fffa15"/><path d="m42 57-0.11-3.1 7.3 0.13-2.2 2-2 3.3 2.5 8.6-11 7.7 2.4-16 3.2-2.6z" fill="#ff6b05"/><path d="m45 58 1.9 4.8 0.4 6.3 3.9 2-2 1.3-1.3-2 2.7 4.3-0.47-3.3-5.2-13z" fill="#ff252e"/><path d="m32 77 4-2.7 19-0.7-7.6-0.45 3.1 8.4-10-2.5-0.19 1.7-4.6 5.1-3.9-8.8z" fill="#5cb176"/><path d="m48 35 4.4-2.5 1.3 0.22 4 2.6-1.3 4.3 4.3-6.4-12-1.8 2.8 1.3-3.5 2.4z" fill="#96111a"/><path d="m51 37 2.2 1 6.2-0.48-1.9 5-0.35 3.6-3.3 3.4-2.8 5.8-4.4-12 4.3-6.3z" fill="#00f5d5"/><path d="m50 51 1.8-4.5 5.3 0.047-4.9 10-1.3-3.1-0.8 2-0.2-0.56-2.3-0.8 2.4-3.6z" fill="#252700"/><path d="m46 55 11-5.9-0.38-1.8-5.8 5.4 7.4 15-8.1-7.1-0.84-0.35-2.1-3.3-0.97-2.4z" fill="#02e697"/><path d="m53 67 4.9 3.1-2.2-0.54-6-5.6 0.88 12-0.027-1.7 4.8-1.8-6.6-5.3 4.2 0.088z" fill="#2b2d96"/><path d="m56 75-4.6 1.5 2-3.1 4.6 1.5 3.4 3.7-12 0.54-1.9-6.5 1-2.5 7.6 4.8z" fill="#6f5758"/><path d="m61 25-2.3-0.078 8.6 0.78-0.58 12-2.9 3.3-3.5 1.9-10-0.51 6.6-9.8 4.4-7.6z" fill="#1fd9d1"/><path d="m59 42 2.2-4.6 6.6-7.6 0.93 14-6.5 3.8-7.6 2.4-1.5-2.4 3.4-4.9 2.5-0.49z" fill="#319200"/><path d="m53 52 4.9-0.65 6-9.8 2.8 15-3.1-0.19-6.7 1.3 3.2-0.34-4.9-9.4-2.3 4.3z" fill="#001b67"/><path d="m51 55 6.4 3.7-0.87 0.97 4 1.3 7.4 4.9-2.4 5.3-9.1-7.8-3-1.9-2.4-6.5z" fill="#89e404"/><path d="m60 57-0.56 1.6 0.53 9.9 7.4-0.43-1.6 6.7-4-1.1 0.56-6-8.8-2.7 6.5-8.1z" fill="#34f66b"/><path d="m57 71 2.7-0.5 2.8 5.2 2.9 6.3 1.7-3.7 1.4-4.2-14-2.6 0.34-1.4 2.4 0.85z" fill="#78110d"/><path d="m69 35-1.5 0.35 4.2 1.8-2.8-3.3-0.65 9.3-0.19-2-2.7-1.3 1.9 0.27 1.7-5.1z" fill="#329323"/><path d="m65 42 2.8-0.17 4.1-4.4 0.53 4.6-1.1 1.5-3.9 7.1-2.4-2.7-0.91-4.8 0.88-0.97z" fill="#124098"/><path d="m58 46 16 2.4-0.48 0.31 0.61 4.9-0.54-2-2.3 1.6-6.3 1.8 0.89-0.35-7.6-8.5z" fill="#ffeb85"/><path d="m57 51 12 3.9 3.4 2.5-0.87 3.7-0.35 9.7-10-7 4.6-3.3-0.3 1.5-8.9-11z" fill="#0b373c"/><path d="m59 63 2.8 3.7 8.4 0.79-3.7-1.8 4.7 3.8-4 8.1-4.1-5.9 3.1-10-7.1 1.2z" fill="#6db5a1"/><path d="m58 78 13-7.1 6.4 0.61-1 2.9-3.2 2.5-9.2 4.6 1.6 1.7 1.8-2.7-9.7-2.6z" fill="#a9b52e"/><path d="m71 31 12-1.6-5.7 5.3-0.14 1-1.4 2.9-11-0.013 3.5 2.2 1.6-4.2 1.5-5.7z" fill="#09ac67"/><path d="m71 36 10 0.46-4.5-0.0019-2.3 5.6 3.4 6.5-0.64-0.95-3.6-0.52-3.2-3.7 0.35-7.4z" fill="#0c2c9e"/><path d="m70 49 0.58-8 16-1.9-6.9 12-2.3 6.8 0.48 3.8-8.8-1.6-0.66-8.9 1.5-2z" fill="#ffcc73"/><path d="m69 60 6.7-1.7 5.8-3.6 1.6 4.7-2.5 7.1-4.8-5.3-3.1 1.5 0.36 5.2-4-7.8z" fill="#fff672"/><path d="m74 61 0.75 1.8 4.9 0.28-5.2-0.25 6.9 10-0.98 1.3-7.5-3.8-1.8-5.7 2.9-3.7z" fill="#15416c"/><path d="m68 73 8.8-0.91 3.8-1.1 1 4.2 2.3 5.9-0.57 0.029-8.1-2.4-8.1 2.4 0.97-8.2z" fill="#8db15a"/></svg>