<svg viewBox="0 0 384 384" xmlns="http://www.w3.org/2000/svg"><rect width="384" height="384" fill="#457286"/><g transform="scale(1) translate(.5 .5)" fill-opacity=".5"><path d="m115 305-75-116 321-95 23 205z" fill="#c7e7e9"/><path d="m399 385v-59l-415-17 13 90z" fill="#00000f"/><path d="m214 389 8.5-405-19 13-5.2 330z"/><path d="m-11-16-1.3 112 411-55v-42z" fill="#001537"/><path d="m96 270-14 129-6-415 16 142z"/><path d="m332 202 32 197-31-279-26-136z" fill="#00002d"/><path d="m286 292 59-31-25-121-32 16z" fill="#fbffff"/><path d="m203 133-7.7 266 22-109 2.3-246z"/><path d="m196 328-99-22-3.4-184 111-34z" fill="#97cfd4"/><path d="m130 347 11 45 4.9-225-14-158z" fill="#004074"/><path d="m51 125 27 2.7 1.7 170-31-0.62z" fill="#b1eae7"/><path d="m3.6 399 395-18-325-37-90 0.41z" fill="#001"/><path d="m41 391-2.8-308 11-99 1.6 235z" fill="#00002e"/><path d="m77 115 10-80 9.2 200-10 88z"/><path d="m330 366-30-149 37 96-264 0.47z" fill="#00548f"/><path d="m360 22 20 262-5.8-300-390 23z" fill="#001640"/><path d="m247 202 9.6 106 22 2.8 1.8-163z" fill="#dff8f7"/><path d="m147 296 52-6.8 3.1-94-57 24z" fill="#eef1f2"/><path d="m11 181 28-16 0.036 136-35-15z" fill="#6cd2cf"/><path d="m122 386 277-80-27-165 17 257z" fill="#00013a"/><path d="m280 354 10-203-6.7-80-3 126z" fill="#005083"/><path d="m336 176 26 141 14-89-42-128z" fill="#c1e6ea"/><path d="m329 129-21-60-92-40 4.3 113z" fill="#55a9aa"/><path d="m353 261-5.3 84-5.6-92-16-116z" fill="#00002d"/><path d="m203 104-2.6-67-111 21 3.6 72z" fill="#499"/><path d="m206-16-166 80-56 162 15-242z" fill="#002248"/><path d="m211 398-16-83 25-233-2.1 119z"/><path d="m56 399 40-110-9.8-196-7.6 195z"/><path d="m56 376-72-80 82 12-5-156z" fill="#003a72"/><path d="m303 229 25 114-19-108-0.83-104z" fill="#007098"/><path d="m88 311 106 1.1-1.1 48-106-13z" fill="#016392"/><path d="m384 226 0.99-18-1.5-94-10-1.5z" fill="#a6e7e5"/><path d="m323 106 17 201-15 5.5-17-136z" fill="#e2f3ef"/><path d="m352 22-143-38 23 92 167-14z" fill="#055c74"/><path d="m238 298 161 28-166 8.8-9.1-182z" fill="#047a9e"/><path d="m132 290-2.5-93-34 15 0.089 89z" fill="#cedfe2"/><path d="m-16 81 57-10-34 158-3.7 104z" fill="#007a91"/><path d="m248 211 0.7 106-7.4-107 4.7-102z" fill="#006189"/><path d="m207 239 11-249-18-6 0.29 54z"/><path d="m82 220-4.5-83-13 135 9.1 37z" fill="#c5dee5"/><path d="m282 313 3.6-27 2.4-171 26 194z" fill="#ceecea"/><path d="m73-16 4.4 143 14-2.2-1.8-139z"/><path d="m217 276-5 38 21-18-14-161z" fill="#b7e0e4"/><path d="m148 189-16 88 1-101 8-78z" fill="#006186"/><path d="m287 198-1.7 101-58 61 45-10z" fill="#00447c"/><path d="m242 313-11-72 3.9-76 11 101z" fill="#caeeef"/><path d="m311 45 15 76 8.7 95-1.1-94z" fill="#000037"/><path d="m369 160-2.6-68-44-27 3.4 35z" fill="#64b0b2"/><path d="m144 266-21 91 8.9-75 13-126z" fill="#005c8d"/><path d="m138 68 67-60-103-23 42 153z" fill="#014f6c"/><path d="m399 47-39-59 13 220-2.2-224z" fill="#000027"/><path d="m252 261-0.94-5.2-3.9-19-7.6 110z" fill="#005786"/><path d="m52 71 22-30 2.4 87-28 25z" fill="#3b969b"/><path d="m-4 355 3.2 42 152 1.5-70-60z" fill="#00001d"/><path d="m22 300 7.6-72 0.28 121-37-3.2z" fill="#003668"/><path d="m328 126-35-52-8.1 86 42-11z" fill="#92c3c8"/><path d="m373 344 26-35-47-0.27-142 40z" fill="#003b76"/><path d="m50 53-9.6 41-0.32 210 10-106z" fill="#00094b"/><path d="m283 302-2.5-253 2.3-50 4.7 120z" fill="#00507f"/><path d="m320 30-1.7 74-4.6-61-3.3-59z" fill="#000016"/><path d="m50 277 6.3 30 3.2-95-10-4.9z" fill="#bcdfda"/><path d="m60-16-76 10v37l65 7.3z" fill="#000229"/><path d="m283 106-35-5.5 0.24 96 31-6.6z" fill="#91c2c6"/><path d="m93 172-0.68-70 46 42-7.7 57z" fill="#83b6b7"/><path d="m337 198-2.5-42 31-24 17 172z" fill="#abd0d8"/><path d="m40 222-3.7-26-6.5 88 8-3.9z" fill="#b3d5d6"/><path d="m306 135-21 34 9.4 131 11-121z" fill="#e2eded"/><path d="m249 307 23 9.4 9.2-32-31-11z" fill="#9bcccc"/><path d="m319 125-10 95 5.9 41 11-15z" fill="#fffcf9"/><path d="m365 386-22-138-0.12 74 56 48z" fill="#00032f"/><path d="m41 206-3.1 106 12 16-0.087-33z" fill="#001351"/><path d="m282 190-37 29 12 67 22-20z" fill="#cde1e4"/><path d="m373 133-4.2 38 21 116z" fill="#00083b"/><path d="m64 247 2.9 106-81-72 66 42z" fill="#005784"/><path d="m384 391-2.3-110-7.1-47 10-8.2z" fill="#000637"/><path d="m76 356 20-64-1.9-48-32 107z" fill="#00000f"/><path d="m346 308-26 3.1 6.6-91 6.1 70z" fill="#7ebfc2"/><path d="m131 264 15-28-5 75 14 8.7z" fill="#006f96"/><path d="m346 220 6.2 62-22-90-0.68-3.5z" fill="#001544"/><path d="m213 321 0.92-29-32 84 35-12z" fill="#00000e"/><path d="m222 224 22-79-0.16-36-25-3.9z" fill="#81b8bc"/><path d="m309 335 9.8-71 4.5 47 76 1.3z" fill="#00668d"/><path d="m53 37 25-13-4 47-25 36z" fill="#0c5d77"/><path d="m381 310-26 2.5-2.9-14 30-19z" fill="#5abbc4"/><path d="m86 86-4.8 127 1.6 127 14-126z" fill="#000015"/><path d="m228 313-13-2.1 5.4-113 13 102z" fill="#aed7dc"/><path d="m42 307-58-46 58-174-48 218z" fill="#2497a3"/><path d="m324 274-3 37 18-84 5.7 53z" fill="#d1e8ea"/><path d="m307 178-1.4 71 17 45-13-57z" fill="#006d9c"/><path d="m65 249 15 44 1.1-29-0.081-77z" fill="#aed3de"/><path d="m199 229 3.5-94-60-9.9 0.87 34z" fill="#87b6bc"/><path d="m41 101-3.6-97-53 113 54 7.4z" fill="#084969"/><path d="m199 47-111 17 6.1-33 107-6.8z" fill="#156374"/><path d="m220 92-2.4-65 97 20 0.51 21z" fill="#307782"/><path d="m394 106-0.73-122-24 38 3.9 55z" fill="#004267"/><path d="m241 336-8-84-4.2-77-0.69 82z" fill="#007592"/></g><path d="m332 306q0 6.4-2.5 11t-7.3 7.5-11 2.6q-9.7 0-15-5.7t-5.5-16q0-9.9 5.5-15t15-5.6 15 5.6 5.5 15zm-8.8 0q0-6.7-3.2-10t-8.9-3.8q-5.8 0-9 3.8t-3.2 11q0 6.8 3.2 11t8.8 3.9q5.8 0 9-3.8t3.1-11z" fill="#fff"/><path d="m32 32h96v96h-96v-96z" fill="#fbfed0"/><path d="m30 33 21 1.1 3.6 0.75-2 0.25 2.9 6.7 6.8-0.94-37-0.46 4.1-5.7 0.66-1.7z" fill="#021f32"/><path d="m39 23-11 19 3.5 8.5 6.7 5 7.2-6.1 0.25-1.5 2.2 4 1.4 1.1-1.5-1.7 4.4 4.9 2.8 16-19-9.4-11-2.2 14 13-8.6-4.2 1.4-4.9 3.2 8.5-3.6-7.5-8.1-5.1-0.09-23 15-14z" fill="#518c85"/><path d="m25 43 17 30 13 9.2-30 5.4 0.64-44z" fill="#a3cba1"/><path d="m29 93-1.2-14 31 0.33-7.8-6.6-2.9 17 9.9-1.4 4.9 2.5-28-2.7 16 0.72-8.6-0.25-1.2 16 0.76-12-1.3 5.5-1.1-0.99 2.1-2.4-14-5.8 3.4 9-1.4-12 0.76-11 3.8 22-5.2-3.8z" fill="#006c03"/><path d="m38 90 20-3.2 1.4 4.5-9.4 6.2-5.9 5.8-18-0.11 1.1 13 0.26-17 11-9.7z" fill="#307e26"/><path d="m8.1 102 22-9.8 16 26 30 23-9.6 1.1-44 9.8-7-21 17-52-25 23z" fill="#fcddbf"/><path d="m38 33 6.9-1.8 42 0.11-9.9 14-4.2 12-34-6.8 6.1-13-7.5-3.8z" fill="#00d5aa"/><path d="m26 47 54-0.63-24 33-6.9-6.5-23-26z" fill="#2e7277"/><path d="m27 55 10-2.8 13 15 5.4 9.7 3.5-0.83-0.043 4.1-2.6 7.5 3.7-6.5-5-8.9-9.1-0.26 17 2.3-16-0.051-20-19z" fill="#384708"/><path d="m54 81 4.2-10 1.9 4.6-1.1-11 7.1 9.4 3.8-3 7.6 13-7.9-2.6-8.8-6.8 8.2 19-38-3.7 6.8 14 14-11 5.4-0.73-11 8.9-9.2 2.4-9 4.8 13-26 14 1.3-3.1-12 2.6 10z" fill="#007350"/><path d="m62 97-14 2.9 13-17 10 5-22 6.6 8.6-3.7-0.94 15-0.9 16 6.1-16 9.2 16 12-8.7-19-6-8.6 4.4-4.2-14-27 2.3 9.1 37-20-34 31-5 13 2.4-10 6 12-8.7z" fill="#ffcabe"/><path d="m34 111 15-2.8-4.9 15-12-0.26 1.5-12z" fill="#00501e"/><path d="m70 42 23-11-22 5.7 7.6 1.7-8.6 3.2z" fill="#02a6a7"/><path d="m37 45 49-0.55-3.4 12 8.5-0.42-6.4 3.7-7.7-3.3 11 7.6-32-12 0.79 29-4.7 5.3 8.7-33-1.1 12-22-20z" fill="#525021"/><path d="m64 56 12-5 12 8.4-0.65 2.5 1.1 11-2.4-1.7 0.073 0.16-6.7 3.5 4.6-1.3-24 2.8-1.5 3-1.2-18 6.5-5.4z" fill="#cad9b1"/><path d="m85 79 13 2.6-14 13-8-9.9 8.3-6.1z" fill="#f70536"/><path d="m61 92 26-15-31 29 16-6.6 6.8 10 2.1-4 15 8.6-19 4.2 6.1-1.3-0.89-7.9-0.38 1.2-2.7 23-5.1-17-30-7.7 17-15-3.2 9.1 3.2-11z" fill="#065947"/><path d="m50 108 21 2.5-8.6 7.7 46 3-25 1.7-6.2 15-7.5 28 18-24 24-9.1-32-7.4-10 46-3.4-41-15-22z" fill="#efbc88"/><path d="m74 44 5.8-5.9 13-9.7-1.7-9.8-1.9 12-2.1 0.91 6.7 12-1.7-5.3-18-7.6-29 7 11 1.9 26 1.7-7.4 3z" fill="#2fc79c"/><path d="m72 52 30 3.2-18-20 23-8.1-18 38 5.5 5.9-10-14-7.3-4.5-4.4 0.48z" fill="#fe9713"/><path d="m61 47 41 7-18 2.9 17-11-9 13 0.62 21 14-5.1-2.7-14-9.2 22 2.7-3.5-9.3-2.9 5.4-0.061-13 9.5 3.2-8.9 1.5 0.41-0.51-19-24-12z" fill="#7b381d"/><path d="m92 76-0.33 8.9 23-8-22 11 1.8 7.5 5.3-0.79-41 0.75 27-2.3 5.6-17z" fill="#ecb704"/><path d="m75 101 23 0.62-8.9 1.8 3 0.98-7.9-1.3 5.4-0.68-2.5 7.8-6.9-5.6 8.2 2.5 8.2 9.7 10 8.6-1.2 1.9-26-4.7-1.6 1.8 2.2 3-4-19 7.6-6.8 4.4 6.2-7.8 2.5-26-4.5 22-4.2z" fill="#22662b"/><path d="m69 110 7 12 6.9 6.6 14-2.9 12 9.9-0.94-2.7-26-0.85-27-25 14 3.8z" fill="#da775e"/><path d="m93 30 18 1.4-6.2 38-0.61-30-11-9z" fill="#99775f"/><path d="m108 41-10 17 0.31 2.1 5 2.5-13-2.3 12 2.1 10-15 16-3.1 4.8 4.9-12 15-3.2 3.5 4.5-12-2.3 15-15 6.8-6.4-11 7.1 7.8 4.9-4.6-11-3 4-6-10-8.5 14-10z" fill="#106071"/><path d="m95 63 15-14 4.5 22-13-28 6.1 31 6.5-8.3 2.7-27 14 14-8.4 17-11 5.1 26 10-4.2 15-30-12 18-11-21-9.6-1.9 24-2-18 18 8.1-16-0.29-1.7-27-1.4 8.6z" fill="#21d3bf"/><path d="m88 94 29-8.9 10 0.4-38 16-1.5-8z" fill="#f8f161"/><path d="m121 104-8.4-4.7 6.8-16-3.1 15-28-7.7 29 11-0.19 19-23-4.1 0.15-3.8 7.6 9.1-15-15-2-5.7 36 2.9z" fill="#37c39c"/><path d="m83 107 23 22 61-13-31 32-53-42z" fill="#630047"/><path d="m113 31 1.1-18 14 14-3 2.6 8.7 7 0.6 16-8.7 9.2 4.3-17-3.4-1.5-28-0.52 31-8.1-30 0.84 14-4.3z" fill="#00080d"/><path d="m111 56 16-32 1.3 35 2.1 17-11 2.9 5.7-17-13 6.9 18-24-18 11z" fill="#000227"/><path d="m98 65 24 2.9 17 11-31-9.9-11-3.9z" fill="#031265"/><path d="m124 70-19 12 36-6.7-10 13 8.2 26-16-17-36-13 43 10-6.4-26z" fill="#009f90"/><path d="m105 108 14-5.9 4.8 11-5.8 7.2-13-12z" fill="#4c591b"/><path d="m81 120 60 13 2.7-95 23 28-2.5 132-37-9.1 35-77-24 28-57-19z" fill="#00000a"/></svg>